<?xml version="1.0" encoding="utf-8"?>
<!-- Generator: Adobe Illustrator 16.0.4, SVG Export Plug-In . SVG Version: 6.00 Build 0)  -->
<!DOCTYPE svg PUBLIC "-//W3C//DTD SVG 1.1//EN" "http://www.w3.org/Graphics/SVG/1.1/DTD/svg11.dtd">
<svg version="1.1" id="Layer_1" xmlns="http://www.w3.org/2000/svg" xmlns:xlink="http://www.w3.org/1999/xlink" x="0px" y="0px"
	 width="173px" height="51.997px" viewBox="0 0 173 51.997" enable-background="new 0 0 173 51.997" xml:space="preserve">
<g>
	<path fill="#4296B4" d="M26,0.998c-13.785,0-25,11.215-25,25.001c0,4.903,1.419,9.48,3.868,13.344h9.227
		c-1.648,2.578-3.08,4.818-3.861,6.043c0.209,0.171,0.422,0.34,0.637,0.503l6.453-6.399l-0.705-0.084l-5.202,5.158
		c0.85-1.331,2.032-3.181,3.336-5.221h1.649l-0.004,0.035l3.197,0.381l0.027,0.003l0.028-0.002c1.382-0.113,2.979-0.264,3.908-0.417
		H34.08c0.007,0.038,0.012,0.062,0.014,0.068l0.054,0.215l3.202-0.056l-0.012,0.076h3.981l0.236-0.304h5.577
		C49.581,35.479,51,30.902,51,25.999C51,12.212,39.786,0.998,26,0.998z"/>
	<g>
		<path fill="#E2231A" d="M5.404,40.152c1.355,1.966,2.984,3.726,4.831,5.231c0.699-1.095,1.916-2.999,3.342-5.231H5.404z"/>
		<path fill="#E2231A" d="M16.654,40.152l-5.782,5.736C15.076,49.092,20.319,51,26,51c8.536,0,16.083-4.3,20.597-10.848H16.654z
			 M22.884,43.364c-0.789-0.095-1.361-0.144-1.716-0.144v5.865c-0.085-0.008-0.209-0.014-0.371-0.021
			c-0.163-0.007-0.285-0.013-0.372-0.019c-0.071,0.006-0.182,0.012-0.328,0.019c-0.149,0.007-0.261,0.013-0.34,0.021V43.22
			c-0.641,0-1.235,0.049-1.783,0.144c0.002-0.055,0.008-0.122,0.016-0.201c0.008-0.078,0.011-0.136,0.011-0.173
			c0-0.043-0.003-0.114-0.011-0.212c-0.007-0.098-0.013-0.177-0.016-0.233h4.91c-0.014,0.146-0.032,0.296-0.057,0.446
			C22.853,43.143,22.872,43.267,22.884,43.364z M28.344,43.253c-0.191,0.33-0.396,0.686-0.61,1.064
			c-0.217,0.379-0.396,0.699-0.541,0.965c-0.146,0.266-0.296,0.552-0.453,0.854v2.966c-0.078-0.006-0.2-0.016-0.366-0.028
			c-0.166-0.013-0.292-0.022-0.378-0.028c-0.234,0.019-0.466,0.039-0.696,0.057v-2.756c-0.169-0.308-0.339-0.618-0.505-0.929
			c-0.168-0.312-0.351-0.658-0.551-1.034c-0.201-0.379-0.385-0.728-0.555-1.045c-0.17-0.318-0.312-0.584-0.427-0.795
			c0.294,0.037,0.583,0.057,0.866,0.057c0.301,0,0.581-0.02,0.839-0.057c0.097,0.185,0.212,0.417,0.346,0.694
			c0.133,0.279,0.267,0.558,0.403,0.838c0.135,0.28,0.251,0.517,0.349,0.713c0.098,0.194,0.206,0.396,0.323,0.603
			c0.118-0.153,0.247-0.36,0.383-0.621c0.14-0.259,0.264-0.505,0.369-0.736c0.109-0.232,0.237-0.515,0.387-0.848
			c0.148-0.333,0.245-0.549,0.291-0.643c0.192,0.037,0.334,0.057,0.43,0.057c0.108,0,0.278-0.02,0.505-0.057
			C28.67,42.687,28.533,42.922,28.344,43.253z M33.75,49.046c-0.26,0-0.552,0.019-0.877,0.057c-0.187-0.328-0.407-0.719-0.663-1.175
			c-0.256-0.452-0.457-0.81-0.606-1.069s-0.312-0.535-0.487-0.825h-0.064v3.069c-0.279-0.038-0.52-0.057-0.718-0.057
			c-0.191,0-0.433,0.019-0.722,0.057v-6.559h2.4c0.45,0,0.786,0.037,1.003,0.114c0.216,0.076,0.424,0.214,0.621,0.408
			c0.26,0.243,0.39,0.583,0.39,1.02c0,0.53-0.152,0.928-0.453,1.197c-0.304,0.268-0.648,0.448-1.033,0.538
			c0.229,0.383,0.432,0.718,0.614,1.004c0.182,0.287,0.438,0.686,0.769,1.2c0.329,0.518,0.557,0.876,0.684,1.077
			C34.289,49.065,34.004,49.046,33.75,49.046z"/>
	</g>
	<path fill="#E2231A" d="M32.399,43.492c-0.104-0.176-0.242-0.293-0.408-0.346c-0.169-0.051-0.372-0.079-0.606-0.079h-0.333v2.557
		c0.05,0.007,0.123,0.011,0.22,0.011c0.84,0,1.27-0.452,1.287-1.355C32.559,43.932,32.505,43.668,32.399,43.492z"/>
	<path fill="#010202" d="M9.132,23.498c-0.331-0.027-0.608,0.164-0.738,0.242c-0.131,0.079,0,0.443,0,0.443s0.112,0.156,0.53,0.087
		c0.162-0.028,0.32-0.21,0.425-0.287c0.104-0.078,0.251-0.26,0.234-0.375C9.567,23.498,9.463,23.523,9.132,23.498z"/>
	<path fill="#E2231A" d="M34.253,17.669L34.253,17.669l6.708-11.446L29.896,18.342l0,0c1.701-0.229,3.421-0.513,3.577-0.539
		C33.536,17.788,33.818,17.721,34.253,17.669z"/>
	<path fill="#006647" d="M34.515,37.755c0.297-0.296,0.625-0.421,0.89-0.522c0.295-0.113,0.44-0.175,0.506-0.351
		c0.141-0.375,0.102-0.449-0.195-1.031c-0.043-0.084-0.091-0.174-0.141-0.276c-0.403-0.808-2.3-4.275-2.472-4.538
		c-0.026-0.032-0.048-0.068-0.076-0.117c-0.097-0.171-0.298-0.525-0.604-0.525c-0.059,0-0.121,0.013-0.188,0.035
		c-0.791,0.286-3.304,0.495-3.409,0.503h-0.014c0,0-0.048,0.002-0.134,0.002c-0.491,0-2.121-0.05-3.446-0.674
		c-0.206,0.396-0.6,1.258-0.6,2.063c0,1.158,0.138,1.545,0.471,2.478c0.3,0.84,0.55,1.425,0.605,1.554
		c0.196,0.274,0.424,0.822,0.127,1.265c-0.294,0.441-1.22,1.3-1.522,1.527c-0.085,0.064-0.36,0.13-0.755,0.195h10.521
		C34.037,39.109,33.947,38.324,34.515,37.755z"/>
	<path fill="#006647" d="M12.268,19.894l1.309-0.557l3.545-0.975c0.013-0.003,0.071-0.02,0.16-0.047
		c-0.035-0.022-0.069-0.045-0.105-0.068c-0.764-0.469-1.477-3.63-1.477-3.63s2.133,0.641,1.68,0.492
		c-0.453-0.149-2.652-3.159-3.166-5.73c0,0-0.501,3.454-3.153,6.107c-0.208,0.206,1.984-0.66,1.984-0.66
		c0.262,0.68-1.999,4.505-1.999,4.505l-0.078,0.414l1.078,0.179C12.113,19.883,12.193,19.872,12.268,19.894z"/>
	<path fill="#006647" d="M42.565,30.516c1.808,0.627,3.128-0.139,3.128-0.139c-1.269-0.307-2.321-1.546-3.012-2.594
		c-0.57,1.146-1.488,2.836-1.542,2.933l-0.008,0.017c-0.003,0.003-0.057,0.09-0.141,0.232c0.169,0.983,0.9,4.796,2.204,5.817
		l0.218,0.172l-1.857,2.388h5.576c0.702-1.109,1.322-2.277,1.845-3.495C45.823,34.099,42.565,30.516,42.565,30.516z"/>
	<path fill="#006647" d="M36.11,8.734c-0.101,0.691-0.381,1.448-0.698,2.131c-0.262,0.564-0.548,1.076-0.779,1.464l1.972-2.159
		C36.316,9.377,36.11,8.734,36.11,8.734z"/>
	<path fill="#006647" d="M38.085,13.086c-0.094-0.021-0.203-0.134-0.322-0.307l-0.185,0.312L38.085,13.086z"/>
	<path fill="#006647" d="M38.033,16.427c0.8,0.172,1.417,0,1.417,0c-1.046-1.047-1.809-2.088-2.231-2.72l-2.288,3.905
		c-0.002,0-0.003,0-0.004,0c0.147-0.008,0.305-0.013,0.469-0.013c0.774,0,1.526,0.094,2.234,0.277l0.218,0.055
		c0.79,0.203,1.335,0.352,1.807,0.602l0.2-0.111C39.126,17.936,38.033,16.427,38.033,16.427z"/>
	<path fill="#006647" d="M29.043,18.452l0.917-1.004l-1.036-0.312c-0.955-0.484-1.945-2.854-1.771-2.785s2.659,0.422,2.659,0.422
		c-3.702-2.952-3.354-5.732-3.354-5.732c0.504,0.33,1.425,0.365,1.425,0.365c-1.877-1.738-2.363-4.276-2.363-4.276
		c-0.452,2.051-2.747,4.068-2.747,4.068c0.296,0.067,1.705-0.193,1.705-0.193s-0.122,0.938-0.209,1.147
		c-0.854,2.047-2.347,4.432-2.347,4.432s0.262,0,0.436-0.053c0.174-0.053,1.477-0.626,1.477-0.626
		c-0.938,3.213-2.068,3.648-2.068,3.648l-0.177,0.118c0.317,0.045,0.637,0.1,0.925,0.147c0.309,0.054,0.577,0.1,0.759,0.119
		c0.214,0.023,0.487,0.104,0.832,0.207c0.753,0.222,1.805,0.532,3.02,0.485L29.043,18.452z"/>
	<path fill="#006647" d="M19.276,30.818l-0.713-2.593l-1.171-0.432c-0.056-0.014-0.306-0.062-0.623-0.062
		c-0.296,0-0.565,0.042-0.798,0.129c-0.446,0.16-0.823,0.268-1.219,0.268c-0.407,0-0.794-0.119-1.18-0.365
		c-0.171-0.108-0.3-0.217-0.415-0.313c-0.218-0.185-0.323-0.266-0.522-0.266c-0.263,0-0.674,0.146-1.292,0.454
		c-1.161,0.581-1.817,0.823-2.156,0.928l-3.87,4.43l-2.804,1.57c0.615,1.686,1.411,3.283,2.358,4.777h9.224
		c0.824-1.289,1.701-2.663,2.581-4.036c0.868-1.358,1.735-2.715,2.551-3.992L19.276,30.818z"/>
	<path fill="#FFD13F" d="M19.525,39.19l-2.506-0.297l0.034-0.281l0.006-0.028l-0.005-0.036c-0.002-0.028-0.007-0.268,0.429-0.398
		c0.694-0.208,1.559-0.468,1.725-1.544c0.098-0.641,0.364-3.194,0.516-4.688l1.541,3.961l0.035,0.04
		c0.025,0.026,0.59,0.66-0.075,1.437C20.555,38.133,19.789,38.923,19.525,39.19z M38.01,39.002l-0.565,0.011l-2.84,0.048
		c-0.014-0.238,0.017-0.625,0.304-0.911c0.213-0.214,0.458-0.307,0.695-0.397c0.313-0.12,0.67-0.258,0.826-0.676
		c0.228-0.602,0.097-0.859-0.221-1.478c-0.042-0.083-0.089-0.173-0.138-0.271c-0.215-0.433-2.401-4.504-2.553-4.658
		c0.006,0.005,0.013,0.014,0.021,0.025c-0.008-0.012-0.018-0.028-0.03-0.052c-0.031-0.056-0.076-0.134-0.135-0.22
		c-0.316-1.062,0.016-2.201,0.016-2.201l1.251-4.239l-0.558,0.696c0,0-0.972,3.059-1.25,3.685c-0.188,0.421-0.438,1.095-0.581,1.488
		c-0.069,0.013-0.139,0.03-0.209,0.055c-0.596,0.217-2.546,0.413-3.257,0.47c-0.014,0-0.052,0.001-0.109,0.001
		c-0.488,0-2.169-0.053-3.412-0.723l0.478-3.586l-0.486-0.07l-0.749,4.488c-0.211,0.492-0.434,1.168-0.434,1.837
		c0,1.207,0.146,1.662,0.503,2.664c0.347,0.973,0.622,1.592,0.634,1.618l0.012,0.029l0.019,0.025
		c0.003,0.003,0.291,0.408,0.13,0.651c-0.25,0.375-1.1,1.165-1.381,1.38c-0.26,0.106-1.936,0.297-3.646,0.449
		c0.36-0.375,0.851-0.901,1.3-1.424c0.757-0.885,0.414-1.757,0.1-2.135l-1.929-4.958c-0.008-0.023-0.02-0.044-0.034-0.062
		l-0.759-2.761l-0.25-0.092l-0.118-1.712l-0.626,0.07l0.123,1.411l-0.584-0.213l-0.028-0.01c-0.013-0.002-0.338-0.082-0.771-0.082
		c-0.361,0-0.695,0.054-0.988,0.162c-0.39,0.14-0.713,0.234-1.029,0.234c-0.304,0-0.583-0.088-0.883-0.279
		c-0.139-0.087-0.248-0.179-0.354-0.269c-0.23-0.195-0.47-0.395-0.881-0.395c-0.364,0-0.824,0.151-1.541,0.511
		c-1.268,0.633-1.907,0.849-2.152,0.917l-0.592-0.596l-0.81,0.44l-0.945-0.556l-0.09-0.357l0.17-0.454l1.259-2.169l0.137-0.547
		l1.137-1.666l0.655-0.585l0.437-1.37l1.861,0.31l0.541,0.486c0.053,0.046,0.121,0.07,0.187,0.07c0.076,0,0.151-0.03,0.207-0.092
		c0.103-0.113,0.093-0.289-0.021-0.393l-0.319-0.287l0.99-0.426l3.532-0.969c0.022-0.007,2.345-0.688,3.074-0.754
		c0.058-0.007,0.124-0.009,0.197-0.009c0.515,0,1.269,0.129,1.875,0.232c0.319,0.055,0.592,0.101,0.791,0.123
		c0.166,0.018,0.43,0.097,0.737,0.187c0.733,0.217,1.738,0.514,2.928,0.514c0.09,0,0.18-0.002,0.27-0.006
		c1.805-0.068,6.242-0.805,6.431-0.835l0.023-0.006c0.008-0.001,0.743-0.188,1.797-0.188c0.728,0,1.434,0.087,2.096,0.259
		l0.219,0.055c1.914,0.492,2.209,0.568,3.933,3.03c0.442,0.634,0.646,1.955,0.649,1.977c0.183,1.02,0.421,2.792,0.288,3.197
		c-0.165,0.493-1.44,2.879-1.924,3.769c0,0,0,0,0,0.001c-0.027,0.043-0.137,0.221-0.283,0.478c-0.369,0.654-0.973,1.828-1.072,2.689
		c-0.129,1.078-0.085,3.679-0.074,4.243l-0.962,1.145L38.01,39.002z M41.047,39.089h-2.133l0.873-1.037l-0.003-0.105
		c-0.001-0.031-0.068-3.122,0.067-4.271c0.067-0.57,0.405-1.334,0.716-1.94c0.288,1.441,0.957,4.176,2.077,5.301L41.047,39.089z"/>
	<path fill="#4296B4" d="M9.132,23.498c-0.331-0.027-0.608,0.164-0.738,0.242c-0.131,0.079,0,0.443,0,0.443s0.112,0.156,0.53,0.087
		c0.162-0.028,0.32-0.21,0.425-0.287c0.104-0.078,0.251-0.26,0.234-0.375C9.567,23.498,9.463,23.523,9.132,23.498z"/>
	<path fill="#FFD13F" d="M19.757,49.085V43.22c-0.641,0-1.235,0.049-1.783,0.144c0.002-0.055,0.008-0.122,0.016-0.201
		c0.008-0.078,0.011-0.136,0.011-0.173c0-0.043-0.003-0.114-0.011-0.212c-0.007-0.098-0.013-0.177-0.016-0.233h4.91
		c-0.014,0.146-0.032,0.296-0.057,0.446c0.026,0.152,0.045,0.276,0.057,0.373c-0.789-0.095-1.361-0.144-1.716-0.144v5.865
		c-0.085-0.008-0.209-0.014-0.371-0.021c-0.163-0.007-0.285-0.013-0.372-0.019c-0.071,0.006-0.182,0.012-0.328,0.019
		C19.948,49.072,19.835,49.078,19.757,49.085L19.757,49.085z"/>
	<path fill="#FFD13F" d="M25.299,46.347c-0.169-0.308-0.339-0.618-0.505-0.929c-0.168-0.312-0.351-0.658-0.551-1.034
		c-0.201-0.379-0.385-0.728-0.555-1.045c-0.17-0.318-0.312-0.584-0.427-0.795c0.294,0.037,0.583,0.057,0.866,0.057
		c0.301,0,0.581-0.02,0.839-0.057c0.097,0.185,0.212,0.417,0.346,0.694c0.133,0.279,0.267,0.558,0.403,0.838
		c0.135,0.28,0.251,0.517,0.349,0.713c0.098,0.194,0.206,0.396,0.323,0.603c0.118-0.153,0.247-0.36,0.383-0.621
		c0.14-0.259,0.264-0.505,0.369-0.736c0.109-0.232,0.237-0.515,0.387-0.848c0.148-0.333,0.245-0.549,0.291-0.643
		c0.192,0.037,0.334,0.057,0.43,0.057c0.108,0,0.278-0.02,0.505-0.057c-0.08,0.143-0.217,0.378-0.406,0.709
		c-0.191,0.33-0.396,0.686-0.61,1.064c-0.217,0.379-0.396,0.699-0.541,0.965c-0.146,0.266-0.296,0.552-0.453,0.854v2.966
		c-0.078-0.006-0.2-0.016-0.366-0.028c-0.166-0.013-0.292-0.022-0.378-0.028c-0.234,0.019-0.466,0.039-0.696,0.057V46.347
		L25.299,46.347z"/>
	<path fill-rule="evenodd" clip-rule="evenodd" fill="#FFD13F" d="M29.612,49.103v-6.559h2.4c0.45,0,0.786,0.037,1.003,0.114
		c0.216,0.076,0.424,0.214,0.621,0.408c0.26,0.243,0.39,0.583,0.39,1.02c0,0.53-0.152,0.928-0.453,1.197
		c-0.304,0.268-0.648,0.448-1.033,0.538c0.229,0.383,0.432,0.718,0.614,1.004c0.182,0.287,0.438,0.686,0.769,1.2
		c0.329,0.518,0.557,0.876,0.684,1.077c-0.317-0.038-0.603-0.057-0.856-0.057c-0.26,0-0.552,0.019-0.877,0.057
		c-0.187-0.328-0.407-0.719-0.663-1.175c-0.256-0.452-0.457-0.81-0.606-1.069s-0.312-0.535-0.487-0.825h-0.064v3.069
		c-0.279-0.038-0.52-0.057-0.718-0.057C30.143,49.046,29.901,49.065,29.612,49.103L29.612,49.103z M31.052,45.624
		c0.05,0.007,0.123,0.011,0.22,0.011c0.84,0,1.27-0.452,1.287-1.355c0-0.347-0.054-0.61-0.159-0.787
		c-0.104-0.176-0.242-0.293-0.408-0.346c-0.169-0.051-0.372-0.079-0.606-0.079h-0.333V45.624L31.052,45.624z"/>
	<g>
		<path fill="none" d="M21.299,35.917l-0.035-0.04l-1.541-3.961c-0.152,1.494-0.418,4.048-0.516,4.688
			c-0.166,1.076-1.03,1.336-1.725,1.544c-0.436,0.131-0.431,0.37-0.429,0.398l0.005,0.036l-0.006,0.028l-0.034,0.281l2.506,0.297
			c0.263-0.267,1.029-1.057,1.699-1.836C21.89,36.578,21.324,35.944,21.299,35.917z"/>
		<path fill="none" d="M39.301,33.611c0.1-0.861,0.703-2.035,1.072-2.689c0.146-0.257,0.256-0.435,0.283-0.478
			c0-0.001,0-0.001,0-0.001c0.483-0.89,1.759-3.275,1.924-3.769c0.133-0.405-0.105-2.178-0.288-3.197
			c-0.003-0.021-0.207-1.343-0.649-1.977c-1.724-2.462-2.019-2.538-3.933-3.03l-0.219-0.055c-0.662-0.172-1.368-0.259-2.096-0.259
			c-1.054,0-1.789,0.187-1.797,0.188l-0.023,0.006c-0.188,0.03-4.626,0.767-6.431,0.835c-0.09,0.004-0.18,0.006-0.27,0.006
			c-1.19,0-2.194-0.297-2.928-0.514c-0.307-0.09-0.571-0.169-0.737-0.187c-0.198-0.022-0.472-0.068-0.791-0.123
			c-0.605-0.104-1.36-0.232-1.875-0.232c-0.073,0-0.14,0.002-0.197,0.009c-0.729,0.065-3.052,0.747-3.074,0.754l-3.532,0.969
			l-0.99,0.426l0.319,0.287c0.115,0.104,0.125,0.279,0.021,0.393c-0.056,0.062-0.131,0.092-0.207,0.092
			c-0.066,0-0.133-0.024-0.187-0.07l-0.541-0.486l-1.861-0.31l-0.437,1.37l-0.655,0.585l-1.137,1.666l-0.137,0.547l-1.259,2.169
			l-0.17,0.454l0.09,0.357l0.945,0.556l0.81-0.44l0.592,0.596c0.246-0.068,0.884-0.284,2.152-0.917
			c0.716-0.359,1.177-0.511,1.541-0.511c0.411,0,0.65,0.199,0.881,0.395c0.106,0.09,0.215,0.182,0.354,0.269
			c0.3,0.191,0.579,0.279,0.883,0.279c0.316,0,0.64-0.095,1.029-0.234c0.293-0.108,0.627-0.162,0.988-0.162
			c0.433,0,0.758,0.08,0.771,0.082l0.028,0.01l0.584,0.213l-0.123-1.411l0.626-0.07l0.118,1.712l0.25,0.092l0.759,2.761
			c0.014,0.018,0.026,0.038,0.034,0.062l1.929,4.958c0.314,0.378,0.657,1.25-0.1,2.135c-0.449,0.522-0.94,1.049-1.3,1.424
			c1.71-0.152,3.387-0.343,3.646-0.449c0.281-0.215,1.131-1.005,1.381-1.38c0.161-0.243-0.126-0.648-0.13-0.651l-0.019-0.025
			l-0.012-0.029c-0.012-0.026-0.287-0.646-0.634-1.618c-0.358-1.002-0.503-1.457-0.503-2.664c0-0.669,0.222-1.345,0.434-1.837
			l0.749-4.488l0.486,0.07l-0.478,3.586c1.243,0.67,2.923,0.723,3.412,0.723c0.058,0,0.096-0.001,0.109-0.001
			c0.711-0.057,2.661-0.253,3.257-0.47c0.07-0.024,0.14-0.042,0.209-0.055c0.144-0.394,0.394-1.067,0.581-1.488
			c0.278-0.626,1.25-3.685,1.25-3.685l0.558-0.696l-1.251,4.239c0,0-0.332,1.14-0.016,2.201c0.059,0.086,0.104,0.164,0.135,0.22
			c0.013,0.023,0.022,0.04,0.03,0.052c-0.009-0.012-0.016-0.021-0.021-0.025c0.151,0.154,2.338,4.226,2.553,4.658
			c0.049,0.099,0.096,0.188,0.138,0.271c0.317,0.618,0.448,0.876,0.221,1.478c-0.156,0.418-0.513,0.556-0.826,0.676
			c-0.237,0.091-0.482,0.184-0.695,0.397c-0.287,0.286-0.317,0.673-0.304,0.911l2.84-0.048l0.565-0.011l0.255-0.004l0.962-1.145
			C39.216,37.29,39.172,34.689,39.301,33.611z"/>
		<path fill="none" d="M34.515,37.755c0.297-0.296,0.625-0.421,0.89-0.522c0.295-0.113,0.44-0.175,0.506-0.351
			c0.141-0.375,0.102-0.449-0.195-1.031c-0.043-0.084-0.091-0.174-0.141-0.276c-0.403-0.808-2.3-4.275-2.472-4.538
			c-0.026-0.032-0.048-0.068-0.076-0.117c-0.097-0.171-0.298-0.525-0.604-0.525c-0.059,0-0.121,0.013-0.188,0.035
			c-0.791,0.286-3.304,0.495-3.409,0.503h-0.014c0,0-0.048,0.002-0.134,0.002c-0.491,0-2.121-0.05-3.446-0.674
			c-0.206,0.396-0.6,1.258-0.6,2.063c0,1.158,0.138,1.545,0.471,2.478c0.3,0.84,0.55,1.425,0.605,1.554
			c0.196,0.274,0.424,0.822,0.127,1.265c-0.294,0.441-1.22,1.3-1.522,1.527c-0.084,0.064-0.359,0.13-0.755,0.195H34.08
			C34.037,39.108,33.947,38.324,34.515,37.755z"/>
		<path fill="none" d="M39.852,33.675c-0.136,1.149-0.068,4.24-0.067,4.271l0.003,0.105l-0.873,1.037h2.133l1.598-2.054
			c-1.12-1.125-1.789-3.859-2.077-5.301C40.257,32.341,39.919,33.105,39.852,33.675z"/>
	</g>
	<g>
		<path fill="#FFD13F" d="M5.407,40.157h8.167c0.171-0.267,0.344-0.539,0.521-0.814H4.868L5.407,40.157z M47.133,39.342h-5.577
			l-0.236,0.304h-3.981l0.012-0.076l-3.202,0.056l-0.054-0.215c-0.002-0.006-0.007-0.03-0.014-0.068H23.559
			c-0.929,0.153-2.526,0.304-3.908,0.417l-2.327-0.271l-0.673,0.668h29.943L47.133,39.342z"/>
	</g>
	<path fill="#FFFFFF" d="M16.499,38.573c-0.016-0.264,0.135-0.748,0.825-0.956c0.758-0.227,1.228-0.401,1.334-1.097
		c0.083-0.533,0.291-2.491,0.444-3.979l0,0c-2.75,4.299-5.925,9.268-7.684,12.021l5.202-5.158l0,0l-0.221-0.027L16.499,38.573z"/>
</g>
<g>
	<path d="M64.346,19.322c0-5.378,1.392-8.469,6.44-8.469c5.048,0,6.463,3.043,6.463,8.469c0,5.614-1.392,8.327-6.463,8.327
		C65.714,27.649,64.346,24.794,64.346,19.322z M75.362,19.322c0-4.411-0.85-6.864-4.576-6.864c-3.751,0-4.577,2.43-4.577,6.864
		c0,4.459,0.803,6.724,4.577,6.724C74.584,26.045,75.362,23.922,75.362,19.322z"/>
	<path d="M85.105,20.195l-2.713,0.095v7.124h-1.816V11.089h1.816v7.596l2.689-0.095l4.176-7.501h2.076l-4.671,8.209l4.93,8.115
		h-2.146L85.105,20.195z"/>
	<path d="M97.491,11.089h11.795v1.627h-4.978v14.697h-1.793V12.716h-5.024V11.089z"/>
	<path d="M116.859,27.414h-1.816v-6.865l-5.213-9.459h2.052l4.058,7.643l4.058-7.643h2.052l-5.189,9.459V27.414z"/>
	<path d="M126.106,21.162v6.252h-1.816V11.089h6.039c3.421,0,5.214,1.51,5.214,4.953c0,2.406-0.943,4.081-2.996,4.742l3.138,6.629
		h-2.006l-2.948-6.252H126.106z M130.329,12.693h-4.223v6.865h4.246c2.454,0,3.326-1.463,3.326-3.516
		C133.679,13.802,132.617,12.693,130.329,12.693z"/>
	<path d="M66.59,38.998l-1.49,0.052v3.912h-0.997v-8.965H65.1v4.172l1.477-0.052l2.293-4.12h1.141l-2.565,4.509l2.708,4.456h-1.18
		L66.59,38.998z"/>
	<path d="M75.879,41.756c0.025,0.376,0.337,0.519,0.751,0.57l-0.038,0.765c-0.688,0-1.153-0.13-1.542-0.519
		c0,0-1.166,0.519-2.332,0.519c-1.179,0-1.826-0.674-1.826-1.982c0-1.243,0.647-1.788,1.981-1.917l2.034-0.194V38.44
		c0-0.906-0.389-1.23-1.166-1.23c-0.907,0-2.448,0.169-2.448,0.169l-0.039-0.739c0,0,1.425-0.284,2.539-0.284
		c1.464,0,2.086,0.673,2.086,2.085V41.756z M72.99,39.917c-0.791,0.077-1.102,0.453-1.102,1.165c0,0.752,0.324,1.192,0.984,1.192
		c0.959,0,2.034-0.401,2.034-0.401v-2.138L72.99,39.917z"/>
	<path d="M77.797,36.484h0.959v0.881c0,0,1.127-0.777,2.37-1.023v0.984c-1.218,0.246-2.357,0.882-2.357,0.882v4.754h-0.972V36.484z"
		/>
	<path d="M82.357,33.66h0.972v9.302h-0.972V33.66z"/>
	<path d="M89.573,37.43c0,0-1.438-0.208-2.267-0.208c-0.804,0-1.412,0.221-1.412,0.985c0,0.608,0.311,0.776,1.684,1.01
		c1.62,0.272,2.229,0.596,2.229,1.853c0,1.516-0.959,2.021-2.513,2.021c-0.829,0-2.28-0.246-2.28-0.246l0.052-0.843
		c0,0,1.477,0.221,2.138,0.221c1.062,0,1.632-0.233,1.632-1.114c0-0.674-0.337-0.842-1.749-1.062
		c-1.464-0.233-2.163-0.505-2.163-1.801c0-1.425,1.153-1.891,2.332-1.891c0.972,0,2.345,0.246,2.345,0.246L89.573,37.43z"/>
	<path d="M92.593,37.326v3.097c0,1.412,0.091,1.813,0.933,1.813c0.362,0,1.152-0.077,1.152-0.077l0.065,0.803
		c0,0-0.868,0.143-1.321,0.143c-1.335,0-1.788-0.505-1.788-2.371v-3.407h-0.92v-0.842h0.92v-1.981h0.959v1.981h2.06v0.842H92.593z"
		/>
	<path d="M100.418,41.756c0.025,0.376,0.337,0.519,0.751,0.57l-0.038,0.765c-0.688,0-1.153-0.13-1.542-0.519
		c0,0-1.166,0.519-2.332,0.519c-1.179,0-1.826-0.674-1.826-1.982c0-1.243,0.647-1.788,1.981-1.917l2.034-0.194V38.44
		c0-0.906-0.389-1.23-1.166-1.23c-0.907,0-2.448,0.169-2.448,0.169l-0.039-0.739c0,0,1.425-0.284,2.539-0.284
		c1.464,0,2.086,0.673,2.086,2.085V41.756z M97.529,39.917c-0.791,0.077-1.102,0.453-1.102,1.165c0,0.752,0.324,1.192,0.984,1.192
		c0.959,0,2.034-0.401,2.034-0.401v-2.138L97.529,39.917z"/>
	<path d="M107.311,42.961h-0.959v-0.44c0,0-0.997,0.57-1.969,0.57c-1.27,0-2.332-0.519-2.332-3.316c0-2.28,0.738-3.42,2.708-3.42
		c0.557,0,1.398,0.129,1.593,0.168V33.66h0.959V42.961z M106.352,41.744v-4.392c-0.207-0.039-1.01-0.155-1.541-0.155
		c-1.36,0-1.762,0.894-1.762,2.578c0,2.099,0.687,2.448,1.45,2.448C105.419,42.223,106.352,41.744,106.352,41.744z"/>
	<path d="M112.324,33.79l0.868,0.324l-3.653,9.029l-0.867-0.312L112.324,33.79z"/>
	<path d="M120.254,38.907h-4.561v4.055h-0.997v-8.965h0.997v4.017h4.561v-4.017h0.984v8.965h-0.984V38.907z"/>
	<path d="M127.846,41.756c0.025,0.376,0.337,0.519,0.751,0.57l-0.038,0.765c-0.688,0-1.153-0.13-1.542-0.519
		c0,0-1.166,0.519-2.332,0.519c-1.179,0-1.826-0.674-1.826-1.982c0-1.243,0.647-1.788,1.981-1.917l2.034-0.194V38.44
		c0-0.906-0.389-1.23-1.166-1.23c-0.907,0-2.448,0.169-2.448,0.169l-0.039-0.739c0,0,1.425-0.284,2.539-0.284
		c1.464,0,2.086,0.673,2.086,2.085V41.756z M124.957,39.917c-0.791,0.077-1.102,0.453-1.102,1.165c0,0.752,0.324,1.192,0.984,1.192
		c0.959,0,2.034-0.401,2.034-0.401v-2.138L124.957,39.917z"/>
	<path d="M129.764,42.961v-6.478h0.959v0.453c0,0,0.972-0.582,1.892-0.582c0.867,0,1.347,0.194,1.684,0.66
		c0,0,1.153-0.66,2.306-0.66c1.762,0,2.189,0.842,2.189,3.187v3.42h-0.972v-3.395c0-1.71-0.194-2.345-1.36-2.345
		c-0.958,0-1.826,0.479-1.826,0.479c0.116,0.298,0.168,1.114,0.168,1.892v3.368h-0.971v-3.343c0-1.787-0.182-2.396-1.36-2.396
		c-0.92,0-1.736,0.479-1.736,0.479v5.26H129.764z"/>
	<path d="M140.596,42.961v-6.478h0.959v0.453c0,0,0.972-0.582,1.892-0.582c0.867,0,1.347,0.194,1.684,0.66
		c0,0,1.153-0.66,2.306-0.66c1.762,0,2.189,0.842,2.189,3.187v3.42h-0.972v-3.395c0-1.71-0.194-2.345-1.36-2.345
		c-0.958,0-1.826,0.479-1.826,0.479c0.116,0.298,0.168,1.114,0.168,1.892v3.368h-0.971v-3.343c0-1.787-0.182-2.396-1.36-2.396
		c-0.92,0-1.736,0.479-1.736,0.479v5.26H140.596z"/>
	<path d="M156,41.756c0.025,0.376,0.337,0.519,0.751,0.57l-0.038,0.765c-0.688,0-1.153-0.13-1.542-0.519
		c0,0-1.166,0.519-2.332,0.519c-1.179,0-1.826-0.674-1.826-1.982c0-1.243,0.647-1.788,1.981-1.917l2.034-0.194V38.44
		c0-0.906-0.389-1.23-1.166-1.23c-0.907,0-2.448,0.169-2.448,0.169l-0.039-0.739c0,0,1.425-0.284,2.539-0.284
		c1.464,0,2.086,0.673,2.086,2.085V41.756z M153.111,39.917c-0.791,0.077-1.102,0.453-1.102,1.165c0,0.752,0.324,1.192,0.984,1.192
		c0.959,0,2.034-0.401,2.034-0.401v-2.138L153.111,39.917z"/>
	<path d="M157.918,36.484h0.959v0.881c0,0,1.127-0.777,2.37-1.023v0.984c-1.218,0.246-2.357,0.882-2.357,0.882v4.754h-0.972V36.484z
		"/>
	<path d="M164.759,36.355c2.06,0,2.772,1.062,2.772,3.29c0,2.357-0.583,3.446-2.772,3.446c-2.177,0-2.772-1.089-2.772-3.446
		C161.986,37.417,162.712,36.355,164.759,36.355z M162.958,34.917h0.933V33.75h-0.933V34.917z M164.759,42.249
		c1.542,0,1.775-0.764,1.775-2.604c0-1.801-0.389-2.448-1.775-2.448c-1.373,0-1.774,0.647-1.774,2.448
		C162.984,41.485,163.23,42.249,164.759,42.249z M165.549,34.917h0.946V33.75h-0.946V34.917z"/>
</g>
</svg>
